<svg xmlns="http://www.w3.org/2000/svg" viewBox="0 0 1400 1600" style="background: white;">
  <defs>
    <style>
      .layer-title { font: bold 24px sans-serif; fill: #2c3e50; }
      .box-title { font: bold 14px sans-serif; fill: white; }
      .box-text { font: 11px sans-serif; fill: white; }
      .section-label { font: bold 16px sans-serif; fill: #34495e; }
      .arrow { stroke: #7f8c8d; stroke-width: 2; fill: none; marker-end: url(#arrowhead); }
      .arrow-bi { stroke: #7f8c8d; stroke-width: 2; fill: none; marker-start: url(#arrowhead-start); marker-end: url(#arrowhead); }

      /* Color scheme */
      .hw-box { fill: #34495e; stroke: #2c3e50; stroke-width: 2; }
      .driver-box { fill: #16a085; stroke: #138d75; stroke-width: 2; }
      .runtime-box { fill: #2980b9; stroke: #1f618d; stroke-width: 2; }
      .lang-box { fill: #8e44ad; stroke: #6c3483; stroke-width: 2; }
      .lib-box { fill: #c0392b; stroke: #a93226; stroke-width: 2; }
      .framework-box { fill: #d35400; stroke: #ba4a00; stroke-width: 2; }
      .tool-box { fill: #27ae60; stroke: #1e8449; stroke-width: 2; }
      .app-box { fill: #95a5a6; stroke: #7f8c8d; stroke-width: 2; }
    </style>
    <marker id="arrowhead" markerWidth="10" markerHeight="10" refX="9" refY="3" orient="auto">
      <polygon points="0 0, 10 3, 0 6" fill="#7f8c8d" />
    </marker>
    <marker id="arrowhead-start" markerWidth="10" markerHeight="10" refX="1" refY="3" orient="auto">
      <polygon points="10 0, 0 3, 10 6" fill="#7f8c8d" />
    </marker>
  </defs>

  <!-- Title -->
  <text x="700" y="40" text-anchor="middle" class="layer-title" font-size="28" fill="#c0392b">ROCm Software Stack</text>

  <!-- Layer 7: Applications -->
  <text x="700" y="90" text-anchor="middle" class="section-label">Applications &amp; Workloads</text>
  <rect x="50" y="100" width="280" height="70" class="app-box" rx="5"/>
  <text x="190" y="125" text-anchor="middle" class="box-title">AI/ML Applications</text>
  <text x="190" y="145" text-anchor="middle" class="box-text">Training | Inference</text>
  <text x="190" y="160" text-anchor="middle" class="box-text">LLMs | Computer Vision</text>

  <rect x="360" y="100" width="280" height="70" class="app-box" rx="5"/>
  <text x="500" y="125" text-anchor="middle" class="box-title">HPC Applications</text>
  <text x="500" y="145" text-anchor="middle" class="box-text">Molecular Dynamics</text>
  <text x="500" y="160" text-anchor="middle" class="box-text">CFD | Weather | Physics</text>

  <rect x="670" y="100" width="280" height="70" class="app-box" rx="5"/>
  <text x="810" y="125" text-anchor="middle" class="box-title">Data Analytics</text>
  <text x="810" y="145" text-anchor="middle" class="box-text">Data Processing</text>
  <text x="810" y="160" text-anchor="middle" class="box-text">Visualization | Mining</text>

  <rect x="980" y="100" width="280" height="70" class="app-box" rx="5"/>
  <text x="1120" y="125" text-anchor="middle" class="box-title">Custom Applications</text>
  <text x="1120" y="145" text-anchor="middle" class="box-text">Research Codes</text>
  <text x="1120" y="160" text-anchor="middle" class="box-text">Domain-Specific</text>

  <!-- Layer 6: Frameworks -->
  <text x="700" y="210" text-anchor="middle" class="section-label">ML/AI Frameworks</text>
  <rect x="100" y="220" width="180" height="60" class="framework-box" rx="5"/>
  <text x="190" y="242" text-anchor="middle" class="box-title">PyTorch ROCm</text>
  <text x="190" y="260" text-anchor="middle" class="box-text">torch.cuda → ROCm</text>
  <text x="190" y="273" text-anchor="middle" class="box-text">Eager + JIT</text>

  <rect x="310" y="220" width="180" height="60" class="framework-box" rx="5"/>
  <text x="400" y="242" text-anchor="middle" class="box-title">TensorFlow ROCm</text>
  <text x="400" y="260" text-anchor="middle" class="box-text">XLA + Graph Mode</text>

  <rect x="520" y="220" width="180" height="60" class="framework-box" rx="5"/>
  <text x="610" y="242" text-anchor="middle" class="box-title">JAX</text>
  <text x="610" y="260" text-anchor="middle" class="box-text">XLA Backend</text>

  <rect x="730" y="220" width="180" height="60" class="framework-box" rx="5"/>
  <text x="820" y="242" text-anchor="middle" class="box-title">ONNX Runtime</text>
  <text x="820" y="260" text-anchor="middle" class="box-text">Model Inference</text>

  <rect x="940" y="220" width="180" height="60" class="framework-box" rx="5"/>
  <text x="1030" y="242" text-anchor="middle" class="box-title">Triton Compiler</text>
  <text x="1030" y="260" text-anchor="middle" class="box-text">GPU Kernels</text>

  <!-- Layer 5: Libraries -->
  <text x="700" y="320" text-anchor="middle" class="section-label">Domain Libraries</text>

  <!-- Math Libraries -->
  <rect x="50" y="335" width="140" height="60" class="lib-box" rx="5"/>
  <text x="120" y="355" text-anchor="middle" class="box-title">rocBLAS</text>
  <text x="120" y="372" text-anchor="middle" class="box-text">BLAS</text>
  <text x="120" y="387" text-anchor="middle" class="box-text">GEMM optimized</text>

  <rect x="210" y="335" width="140" height="60" class="lib-box" rx="5"/>
  <text x="280" y="355" text-anchor="middle" class="box-title">rocSOLVER</text>
  <text x="280" y="372" text-anchor="middle" class="box-text">LAPACK</text>
  <text x="280" y="387" text-anchor="middle" class="box-text">Linear Algebra</text>

  <rect x="370" y="335" width="140" height="60" class="lib-box" rx="5"/>
  <text x="440" y="355" text-anchor="middle" class="box-title">rocFFT</text>
  <text x="440" y="372" text-anchor="middle" class="box-text">FFT</text>
  <text x="440" y="387" text-anchor="middle" class="box-text">Transforms</text>

  <rect x="530" y="335" width="140" height="60" class="lib-box" rx="5"/>
  <text x="600" y="355" text-anchor="middle" class="box-title">rocSPARSE</text>
  <text x="600" y="372" text-anchor="middle" class="box-text">Sparse LA</text>
  <text x="600" y="387" text-anchor="middle" class="box-text">CSR, COO</text>

  <rect x="690" y="335" width="140" height="60" class="lib-box" rx="5"/>
  <text x="760" y="355" text-anchor="middle" class="box-title">rocRAND</text>
  <text x="760" y="372" text-anchor="middle" class="box-text">RNG</text>
  <text x="760" y="387" text-anchor="middle" class="box-text">Random Nums</text>

  <!-- ML Libraries -->
  <rect x="850" y="335" width="140" height="60" class="lib-box" rx="5"/>
  <text x="920" y="355" text-anchor="middle" class="box-title">MIOpen</text>
  <text x="920" y="372" text-anchor="middle" class="box-text">DNN Primitives</text>
  <text x="920" y="387" text-anchor="middle" class="box-text">Conv, Pool, BN</text>

  <rect x="1010" y="335" width="140" height="60" class="lib-box" rx="5"/>
  <text x="1080" y="355" text-anchor="middle" class="box-title">RCCL</text>
  <text x="1080" y="372" text-anchor="middle" class="box-text">Collective Comm</text>
  <text x="1080" y="387" text-anchor="middle" class="box-text">AllReduce, etc</text>

  <rect x="1170" y="335" width="140" height="60" class="lib-box" rx="5"/>
  <text x="1240" y="355" text-anchor="middle" class="box-title">rocThrust</text>
  <text x="1240" y="372" text-anchor="middle" class="box-text">Parallel Algos</text>
  <text x="1240" y="387" text-anchor="middle" class="box-text">Sort, Scan</text>

  <!-- Layer 4: Programming Models & Tools -->
  <text x="350" y="440" text-anchor="middle" class="section-label">Programming Models</text>
  <text x="1050" y="440" text-anchor="middle" class="section-label">Development Tools</text>

  <!-- Programming Languages -->
  <rect x="50" y="455" width="180" height="70" class="lang-box" rx="5"/>
  <text x="140" y="477" text-anchor="middle" class="box-title">HIP</text>
  <text x="140" y="495" text-anchor="middle" class="box-text">C++ GPU Language</text>
  <text x="140" y="510" text-anchor="middle" class="box-text">CUDA-like API</text>
  <text x="140" y="520" text-anchor="middle" class="box-text" font-size="9">hipcc compiler</text>

  <rect x="250" y="455" width="180" height="70" class="lang-box" rx="5"/>
  <text x="340" y="477" text-anchor="middle" class="box-title">OpenCL</text>
  <text x="340" y="495" text-anchor="middle" class="box-text">Open Standard</text>
  <text x="340" y="510" text-anchor="middle" class="box-text">Cross-platform</text>

  <rect x="450" y="455" width="180" height="70" class="lang-box" rx="5"/>
  <text x="540" y="477" text-anchor="middle" class="box-title">OpenMP Offload</text>
  <text x="540" y="495" text-anchor="middle" class="box-text">Directive-based</text>
  <text x="540" y="510" text-anchor="middle" class="box-text">Parallel regions</text>

  <!-- Tools -->
  <rect x="850" y="455" width="180" height="70" class="tool-box" rx="5"/>
  <text x="940" y="477" text-anchor="middle" class="box-title">rocprofiler-sdk</text>
  <text x="940" y="495" text-anchor="middle" class="box-text">Profiling API</text>
  <text x="940" y="510" text-anchor="middle" class="box-text">Counters + Traces</text>

  <rect x="1050" y="455" width="180" height="70" class="tool-box" rx="5"/>
  <text x="1140" y="477" text-anchor="middle" class="box-title">ROCgdb</text>
  <text x="1140" y="495" text-anchor="middle" class="box-text">GPU Debugger</text>
  <text x="1140" y="510" text-anchor="middle" class="box-text">Breakpoints, Watch</text>

  <rect x="850" y="545" width="180" height="60" class="tool-box" rx="5"/>
  <text x="940" y="567" text-anchor="middle" class="box-title">rocm-smi</text>
  <text x="940" y="585" text-anchor="middle" class="box-text">System Monitor</text>
  <text x="940" y="598" text-anchor="middle" class="box-text">Telemetry</text>

  <rect x="1050" y="545" width="180" height="60" class="tool-box" rx="5"/>
  <text x="1140" y="567" text-anchor="middle" class="box-title">hipify</text>
  <text x="1140" y="585" text-anchor="middle" class="box-text">CUDA→HIP</text>
  <text x="1140" y="598" text-anchor="middle" class="box-text">Code Translation</text>

  <!-- Layer 3: Runtime & Compiler -->
  <text x="700" y="650" text-anchor="middle" class="section-label">Runtime &amp; Compilation</text>

  <rect x="50" y="665" width="250" height="80" class="runtime-box" rx="5"/>
  <text x="175" y="690" text-anchor="middle" class="box-title">HIP Runtime</text>
  <text x="175" y="708" text-anchor="middle" class="box-text">Memory Management</text>
  <text x="175" y="723" text-anchor="middle" class="box-text">Kernel Launch | Streams</text>
  <text x="175" y="738" text-anchor="middle" class="box-text">Events | Synchronization</text>

  <rect x="330" y="665" width="250" height="80" class="runtime-box" rx="5"/>
  <text x="455" y="690" text-anchor="middle" class="box-title">HSA Runtime</text>
  <text x="455" y="708" text-anchor="middle" class="box-text">Queue Management</text>
  <text x="455" y="723" text-anchor="middle" class="box-text">Signals | Memory Pools</text>
  <text x="455" y="738" text-anchor="middle" class="box-text">Agent Discovery</text>

  <rect x="610" y="665" width="250" height="80" class="runtime-box" rx="5"/>
  <text x="735" y="690" text-anchor="middle" class="box-title">AMDGPU LLVM</text>
  <text x="735" y="708" text-anchor="middle" class="box-text">Compiler Backend</text>
  <text x="735" y="723" text-anchor="middle" class="box-text">LLVM IR → ISA</text>
  <text x="735" y="738" text-anchor="middle" class="box-text">Code Objects</text>

  <rect x="890" y="665" width="250" height="80" class="runtime-box" rx="5"/>
  <text x="1015" y="690" text-anchor="middle" class="box-title">ROCm Device Libs</text>
  <text x="1015" y="708" text-anchor="middle" class="box-text">Math Functions</text>
  <text x="1015" y="723" text-anchor="middle" class="box-text">Intrinsics</text>
  <text x="1015" y="738" text-anchor="middle" class="box-text">Builtins (sin, cos, etc)</text>

  <!-- Layer 2: Kernel Driver -->
  <text x="700" y="790" text-anchor="middle" class="section-label">Kernel &amp; Driver</text>

  <rect x="100" y="805" width="300" height="80" class="driver-box" rx="5"/>
  <text x="250" y="830" text-anchor="middle" class="box-title">amdgpu Kernel Driver</text>
  <text x="250" y="848" text-anchor="middle" class="box-text">DRM/KMS Graphics</text>
  <text x="250" y="863" text-anchor="middle" class="box-text">Memory Manager (VRAM)</text>
  <text x="250" y="878" text-anchor="middle" class="box-text">Command Submission</text>

  <rect x="430" y="805" width="300" height="80" class="driver-box" rx="5"/>
  <text x="580" y="830" text-anchor="middle" class="box-title">KFD (Kernel Fusion Driver)</text>
  <text x="580" y="848" text-anchor="middle" class="box-text">HSA Queue Management</text>
  <text x="580" y="863" text-anchor="middle" class="box-text">Compute-focused Interface</text>
  <text x="580" y="878" text-anchor="middle" class="box-text">IOMMU, Process Isolation</text>

  <rect x="760" y="805" width="300" height="80" class="driver-box" rx="5"/>
  <text x="910" y="830" text-anchor="middle" class="box-title">ROCm Thunk</text>
  <text x="910" y="848" text-anchor="middle" class="box-text">User-Kernel Interface</text>
  <text x="910" y="863" text-anchor="middle" class="box-text">ioctl Abstraction</text>
  <text x="910" y="878" text-anchor="middle" class="box-text">libhsakmt</text>

  <!-- Layer 1: Hardware -->
  <text x="700" y="930" text-anchor="middle" class="section-label">Hardware Architecture</text>

  <!-- GPU Die/XCD -->
  <rect x="50" y="950" width="1300" height="600" class="hw-box" rx="8" fill="#2c3e50" opacity="0.1" stroke="#2c3e50" stroke-width="3"/>
  <text x="700" y="980" text-anchor="middle" class="section-label" font-size="20" fill="#c0392b">AMD Instinct GPU (MI300X Example)</text>

  <!-- Compute Dies / XCDs -->
  <rect x="80" y="1000" width="580" height="220" class="hw-box" rx="5"/>
  <text x="370" y="1025" text-anchor="middle" class="box-title" font-size="16">Compute Dies (XCDs) - 8x per GPU</text>

  <!-- CUs in XCD -->
  <rect x="100" y="1040" width="250" height="165" class="hw-box" rx="3" fill="#34495e" opacity="0.8"/>
  <text x="225" y="1060" text-anchor="middle" class="box-text" font-size="12">Compute Units (38 per XCD)</text>

  <!-- Single CU detail -->
  <rect x="120" y="1075" width="210" height="120" fill="#16a085" stroke="#138d75" stroke-width="1" rx="3"/>
  <text x="225" y="1092" text-anchor="middle" class="box-text" font-size="11">Compute Unit (CU)</text>
  <text x="140" y="1110" class="box-text" font-size="10">• 4x SIMD Units (64 lanes each)</text>
  <text x="140" y="1125" class="box-text" font-size="10">• SALU (Scalar ALU)</text>
  <text x="140" y="1140" class="box-text" font-size="10">• LDS (128 KB shared mem)</text>
  <text x="140" y="1155" class="box-text" font-size="10">• L1 Cache (32 KB)</text>
  <text x="140" y="1170" class="box-text" font-size="10">• Texture Units</text>
  <text x="140" y="1185" class="box-text" font-size="10">• 256 VGPRs, 800 SGPRs</text>

  <!-- Matrix Cores -->
  <rect x="370" y="1040" width="270" height="80" class="hw-box" rx="3" fill="#8e44ad" opacity="0.8"/>
  <text x="505" y="1062" text-anchor="middle" class="box-text" font-size="12">Matrix Core Engines</text>
  <text x="390" y="1082" class="box-text" font-size="10">• MFMA (Matrix Fused Multiply-Add)</text>
  <text x="390" y="1097" class="box-text" font-size="10">• FP64, FP32, FP16, BF16, INT8</text>
  <text x="390" y="1112" class="box-text" font-size="10">• 4x4, 16x16, 32x32 matrix ops</text>

  <!-- L2 Cache -->
  <rect x="370" y="1135" width="270" height="70" class="hw-box" rx="3" fill="#2980b9" opacity="0.8"/>
  <text x="505" y="1157" text-anchor="middle" class="box-text" font-size="12">L2 Cache (32 MB per XCD)</text>
  <text x="390" y="1177" class="box-text" font-size="10">• Shared across CUs in XCD</text>
  <text x="390" y="1192" class="box-text" font-size="10">• Coherent with other XCDs</text>

  <!-- Memory System -->
  <rect x="690" y="1000" width="270" height="220" class="hw-box" rx="5"/>
  <text x="825" y="1025" text-anchor="middle" class="box-title" font-size="16">Memory System</text>

  <rect x="710" y="1040" width="230" height="80" fill="#c0392b" stroke="#a93226" stroke-width="1" rx="3"/>
  <text x="825" y="1062" text-anchor="middle" class="box-text" font-size="12">HBM3 (192 GB)</text>
  <text x="730" y="1082" class="box-text" font-size="10">• 5.2 TB/s bandwidth</text>
  <text x="730" y="1097" class="box-text" font-size="10">• 8 HBM stacks</text>
  <text x="730" y="1112" class="box-text" font-size="10">• 24 GB per stack</text>

  <rect x="710" y="1135" width="230" height="70" fill="#27ae60" stroke="#1e8449" stroke-width="1" rx="3"/>
  <text x="825" y="1157" text-anchor="middle" class="box-text" font-size="12">Memory Controllers</text>
  <text x="730" y="1177" class="box-text" font-size="10">• 8x 256-bit interfaces</text>
  <text x="730" y="1192" class="box-text" font-size="10">• ECC support</text>

  <!-- Interconnect -->
  <rect x="990" y="1000" width="340" height="220" class="hw-box" rx="5"/>
  <text x="1160" y="1025" text-anchor="middle" class="box-title" font-size="16">Interconnect</text>

  <rect x="1010" y="1040" width="300" height="70" fill="#d35400" stroke="#ba4a00" stroke-width="1" rx="3"/>
  <text x="1160" y="1062" text-anchor="middle" class="box-text" font-size="12">Infinity Fabric</text>
  <text x="1030" y="1082" class="box-text" font-size="10">• Inter-XCD communication</text>
  <text x="1030" y="1097" class="box-text" font-size="10">• Cache coherency protocol</text>

  <rect x="1010" y="1125" width="145" height="80" fill="#16a085" stroke="#138d75" stroke-width="1" rx="3"/>
  <text x="1082" y="1145" text-anchor="middle" class="box-text" font-size="11">PCIe Gen5</text>
  <text x="1030" y="1162" class="box-text" font-size="9">• x16 lanes</text>
  <text x="1030" y="1175" class="box-text" font-size="9">• 128 GB/s</text>
  <text x="1030" y="1188" class="box-text" font-size="9">• Host Link</text>

  <rect x="1165" y="1125" width="145" height="80" fill="#16a085" stroke="#138d75" stroke-width="1" rx="3"/>
  <text x="1237" y="1145" text-anchor="middle" class="box-text" font-size="11">Infinity Fabric Link</text>
  <text x="1185" y="1162" class="box-text" font-size="9">• GPU-to-GPU</text>
  <text x="1185" y="1175" class="box-text" font-size="9">• 896 GB/s</text>
  <text x="1185" y="1188" class="box-text" font-size="9">• 8 links/GPU</text>

  <!-- Command Processor & Scheduler -->
  <rect x="80" y="1240" width="300" height="100" class="hw-box" rx="5"/>
  <text x="230" y="1265" text-anchor="middle" class="box-title" font-size="16">Command Processor</text>
  <text x="100" y="1290" class="box-text" font-size="10">• Fetches work from HSA queues</text>
  <text x="100" y="1305" class="box-text" font-size="10">• Dispatches kernels to CUs</text>
  <text x="100" y="1320" class="box-text" font-size="10">• Manages wavefront scheduling</text>
  <text x="100" y="1335" class="box-text" font-size="10">• Hardware queue management</text>

  <!-- Wave Scheduler -->
  <rect x="400" y="1240" width="300" height="100" class="hw-box" rx="5"/>
  <text x="550" y="1265" text-anchor="middle" class="box-title" font-size="16">Wavefront Scheduler</text>
  <text x="420" y="1290" class="box-text" font-size="10">• 40 wavefront slots per CU</text>
  <text x="420" y="1305" class="box-text" font-size="10">• Round-robin scheduling</text>
  <text x="420" y="1320" class="box-text" font-size="10">• Latency hiding via context switch</text>
  <text x="420" y="1335" class="box-text" font-size="10">• Independent per SIMD unit</text>

  <!-- GPU Engines -->
  <rect x="720" y="1240" width="300" height="100" class="hw-box" rx="5"/>
  <text x="870" y="1265" text-anchor="middle" class="box-title" font-size="16">Specialized Engines</text>
  <text x="740" y="1290" class="box-text" font-size="10">• DMA Engines (SDMA)</text>
  <text x="740" y="1305" class="box-text" font-size="10">• Video Encode/Decode (VCN)</text>
  <text x="740" y="1320" class="box-text" font-size="10">• Display Controller (DCN)</text>
  <text x="740" y="1335" class="box-text" font-size="10">• Power Management (SMU)</text>

  <!-- Power & Thermal -->
  <rect x="1040" y="1240" width="290" height="100" class="hw-box" rx="5"/>
  <text x="1185" y="1265" text-anchor="middle" class="box-title" font-size="16">Power &amp; Thermal</text>
  <text x="1060" y="1290" class="box-text" font-size="10">• 750W TDP (MI300X)</text>
  <text x="1060" y="1305" class="box-text" font-size="10">• Dynamic power management</text>
  <text x="1060" y="1320" class="box-text" font-size="10">• Clock gating per CU</text>
  <text x="1060" y="1335" class="box-text" font-size="10">• Thermal monitoring (junction temp)</text>

  <!-- Key Architectural Features -->
  <rect x="80" y="1360" width="1250" height="110" fill="#ecf0f1" stroke="#bdc3c7" stroke-width="2" rx="5"/>
  <text x="705" y="1385" text-anchor="middle" class="section-label" fill="#2c3e50" font-size="14">Key Specifications (MI300X)</text>
  <text x="100" y="1410" font-size="11" fill="#2c3e50">• <tspan font-weight="bold">304 Compute Units</tspan> (8 XCDs × 38 CUs)</text>
  <text x="100" y="1428" font-size="11" fill="#2c3e50">• <tspan font-weight="bold">19,456 Stream Processors</tspan> (64 lanes × 304 CUs)</text>
  <text x="100" y="1446" font-size="11" fill="#2c3e50">• <tspan font-weight="bold">1.3 TFLOPS FP64</tspan> Peak Performance</text>
  <text x="100" y="1464" font-size="11" fill="#2c3e50">• <tspan font-weight="bold">256 MB L2 Cache</tspan> (32 MB × 8 XCDs)</text>

  <text x="705" y="1410" font-size="11" fill="#2c3e50">• <tspan font-weight="bold">192 GB HBM3</tspan> @ 5.2 TB/s</text>
  <text x="705" y="1428" font-size="11" fill="#2c3e50">• <tspan font-weight="bold">CDNA 3</tspan> Architecture (gfx942)</text>
  <text x="705" y="1446" font-size="11" fill="#2c3e50">• <tspan font-weight="bold">40 Wavefronts/CU</tspan> Max Occupancy</text>
  <text x="705" y="1464" font-size="11" fill="#2c3e50">• <tspan font-weight="bold">64-wide</tspan> Wavefront (SIMT)</text>

  <text x="1040" y="1410" font-size="11" fill="#2c3e50">• <tspan font-weight="bold">PCIe Gen5 x16</tspan></text>
  <text x="1040" y="1428" font-size="11" fill="#2c3e50">• <tspan font-weight="bold">8× Infinity Fabric Links</tspan></text>
  <text x="1040" y="1446" font-size="11" fill="#2c3e50">• <tspan font-weight="bold">ECC Memory</tspan></text>
  <text x="1040" y="1464" font-size="11" fill="#2c3e50">• <tspan font-weight="bold">SRIOV Support</tspan></text>

  <!-- Arrows showing data flow -->
  <!-- Apps to Frameworks -->
  <path d="M 190 170 L 190 220" class="arrow"/>
  <path d="M 500 170 L 400 220" class="arrow"/>
  <path d="M 810 170 L 610 220" class="arrow"/>

  <!-- Frameworks to Libraries -->
  <path d="M 190 280 L 280 335" class="arrow"/>
  <path d="M 400 280 L 440 335" class="arrow"/>
  <path d="M 610 280 L 600 335" class="arrow"/>
  <path d="M 820 280 L 920 335" class="arrow"/>

  <!-- Libraries to Programming Models -->
  <path d="M 280 395 L 230 455" class="arrow"/>
  <path d="M 600 395 L 430 455" class="arrow"/>
  <path d="M 920 395 L 540 455" class="arrow"/>

  <!-- Programming Models to Runtime -->
  <path d="M 140 525 L 175 665" class="arrow"/>
  <path d="M 340 525 L 455 665" class="arrow"/>
  <path d="M 540 525 L 735 665" class="arrow"/>

  <!-- Tools to Runtime -->
  <path d="M 940 525 L 455 665" class="arrow"/>
  <path d="M 1140 525 L 735 665" class="arrow"/>

  <!-- Runtime to Kernel -->
  <path d="M 175 745 L 250 805" class="arrow"/>
  <path d="M 455 745 L 580 805" class="arrow"/>
  <path d="M 735 745 L 580 805" class="arrow"/>
  <path d="M 1015 745 L 910 805" class="arrow"/>

  <!-- Kernel to Hardware -->
  <path d="M 250 885 L 370 1000" class="arrow"/>
  <path d="M 580 885 L 505 1000" class="arrow"/>
  <path d="M 910 885 L 825 1000" class="arrow"/>

  <!-- Bidirectional between layers -->
  <path d="M 1300 705 L 1300 845" class="arrow-bi" stroke-dasharray="5,5" opacity="0.5"/>
  <text x="1310" y="775" font-size="10" fill="#7f8c8d">User/Kernel</text>
  <text x="1310" y="790" font-size="10" fill="#7f8c8d">Interface</text>

</svg>
